<?xml version="1.0" encoding="UTF-8"?><svg id="Android_Thumbnails" xmlns="http://www.w3.org/2000/svg" viewBox="0 0 400 200"><rect width="400" height="200" fill="#1b1b1b"/><rect x="16" y="32" width="368" height="136" fill="#333"/><text transform="translate(32 138)" fill="#ccc" font-family="HelveticaNeue-Bold, &apos;Helvetica Neue&apos;" font-size="28" font-weight="700"><tspan x="0" y="0">Title</tspan></text><line x1="58.69" y1="63.4" x2="37.35" y2="63.4" fill="none" stroke="#999" stroke-miterlimit="10" stroke-width="3"/><polyline points="48.02 74.06 37.35 63.4 48.02 52.73" fill="none" fill-rule="evenodd" stroke="#999" stroke-miterlimit="10" stroke-width="3"/><rect x="32" y="48" width="32" height="32" fill="none"/><g id="_-_Color"><path id="path-23" d="m352,57.33c1.83,0,3.33-1.5,3.33-3.33s-1.5-3.33-3.33-3.33-3.33,1.5-3.33,3.33,1.5,3.33,3.33,3.33Zm0,3.33c-1.83,0-3.33,1.5-3.33,3.33s1.5,3.33,3.33,3.33,3.33-1.5,3.33-3.33-1.5-3.33-3.33-3.33Zm0,10c-1.83,0-3.33,1.5-3.33,3.33s1.5,3.33,3.33,3.33,3.33-1.5,3.33-3.33-1.5-3.33-3.33-3.33Z" fill="#999" fill-rule="evenodd"/></g><rect x="336" y="48" width="32" height="32" fill="none"/><g id="icons_communication_-D_ic_Calendar_event_agenda"><path d="m314.75,53.25h-3.44v-1.31c0-.71-.58-1.27-1.29-1.27s-1.29.58-1.29,1.29v1.29h-9.46v-1.29c0-.71-.58-1.29-1.29-1.29s-1.29.58-1.29,1.29v1.29h-6.02v21.51c0,1.43,1.16,2.58,2.58,2.58h24.09v-21.51c0-1.43-1.16-2.58-2.58-2.58h0Zm.86,22.37h-21.94c-.71,0-1.29-.58-1.29-1.29v-13.33h21.94c.71,0,1.29.58,1.29,1.29v13.33Zm-19.78-19.35c0-.68.32-1.31.86-1.72v1.72c0,.71.58,1.29,1.29,1.29s1.29-.58,1.29-1.29v-.43h0v-1.29c.81.61,1.09,1.7.66,2.61-.42.92-1.43,1.42-2.41,1.21-.99-.22-1.69-1.09-1.69-2.1h0Zm12.04,0c0-.68.32-1.31.86-1.72v1.72c0,.71.58,1.29,1.29,1.29s1.29-.58,1.29-1.29v-.43s0,0,0,0v-1.27c.54.4.86,1.03.86,1.7,0,1.19-.96,2.15-2.15,2.15s-2.15-.96-2.15-2.15Z" fill="#999" fill-rule="evenodd"/></g><rect x="288" y="48" width="32" height="32" fill="none"/><g id="icons_functional_UI_A-E_ic_Attachment"><path d="m257.85,50.67c-2.66,0-4.81,2.16-4.81,4.81v15.19c0,1.64,1.33,2.96,2.96,2.96s2.96-1.33,2.96-2.96v-8.89c0-.82-.66-1.48-1.48-1.48h-.74v10.37c0,.41-.33.74-.74.74s-.74-.33-.74-.74v-15.19c0-1.43,1.16-2.59,2.59-2.59s2.59,1.16,2.59,2.59v15.19c0,2.45-1.99,4.44-4.44,4.44s-4.44-1.99-4.44-4.44v-10.37h-.74c-.82,0-1.48.66-1.48,1.48v8.89c0,3.68,2.98,6.67,6.67,6.67s6.67-2.98,6.67-6.67v-15.19c0-2.66-2.16-4.81-4.81-4.81Z" fill="#999" fill-rule="evenodd"/></g><rect x="240" y="48" width="32" height="32" fill="none"/></svg>