<svg id="a" xmlns="http://www.w3.org/2000/svg" width="1692" height="854" viewBox="0 0 1692 854">
    <rect id="b" style="fill:#1b1b1b;" width="1692" height="854"/><g><g><rect style="fill:#fff;" x="196.75" y="97" width="591.85" height="660" rx="9.8" ry="9.8"/><rect style="fill:#999;" x="196.29" y="220.04" width="591.85" height="334.8"/>
    <circle style="fill:#999;" cx="259.41" cy="159.66" r="34.76"/><rect style="fill:#999;" x="322.53" y="129.47" width="163.74" height="23.78"/>
    <rect style="fill:#999;" x="322.53" y="176.13" width="75.01" height="18.3"/>
    <rect style="fill:#999;" x="710.39" y="143.2" width="32.93" height="32.93"/>
    <rect style="fill:#999;" x="224.65" y="591.43" width="450.98" height="13.72"/>
    <rect style="fill:#999;" x="224.65" y="629.85" width="426.28" height="12.81"/><rect style="fill:#ff7900;" x="224.65" y="687.6" width="104.28" height="28.24"/>
    <rect style="fill:#ff7900;" x="385.65" y="687.6" width="104.28" height="28.24"/></g>
    <g><rect style="fill:#2f2f2f;" x="903.86" y="97" width="591.85" height="660" rx="9.8" ry="9.8"/><rect style="fill:#fff;opacity:.6;" x="903.4" y="220.04" width="591.85" height="334.8"/><circle style="fill:#fff;opacity:.6;" cx="966.52" cy="159.66" r="34.76"/><rect style="fill:#fff;opacity:.6;" x="1029.64" y="129.47" width="163.74" height="23.78"/><rect style="fill:#fff;opacity:.6;" x="1029.64" y="176.13" width="75.01" height="18.3"/><rect style="fill:#fff;opacity:.6;" x="1417.5" y="143.2" width="32.93" height="32.93"/><rect style="fill:#fff;opacity:.6;" x="931.76" y="591.43" width="450.98" height="13.72"/><rect style="fill:#fff;opacity:.6;" x="931.76" y="629.85" width="426.28" height="12.81"/><rect style="fill:#ff7900;" x="931.76" y="687.6" width="104.28" height="28.24"/><rect style="fill:#ff7900;" x="1092.76" y="687.6" width="104.28" height="28.24"/></g></g></svg>