<?xml version="1.0" encoding="UTF-8"?><svg id="a" xmlns="http://www.w3.org/2000/svg" viewBox="0 0 1600 800">
    <rect id="b" style="fill:#1b1b1b;" width="1600" height="800"/><g id="c"><g id="d"><path id="e" style="fill:#f16e00;" d="M800,490c-49.71,0-90-40.29-90-90s40.29-90,90-90,90,40.29,90,90c-.05,49.68-40.32,89.95-90,90Zm0-162c-39.76,0-72,32.24-72,72s32.24,72,72,72,72-32.24,72-72c-.04-39.75-32.25-71.96-72-72Zm0,117c-24.85,0-45-20.15-45-45s20.15-45,45-45,45,20.15,45,45c-.03,24.84-20.16,44.97-45,45Z"/></g></g></svg>