<?xml version="1.0" standalone="no"?>
<!DOCTYPE svg PUBLIC "-//W3C//DTD SVG 20010904//EN"
 "http://www.w3.org/TR/2001/REC-SVG-20010904/DTD/svg10.dtd">
<svg version="1.0" xmlns="http://www.w3.org/2000/svg"
 width="1024.000000pt" height="1024.000000pt" viewBox="0 0 1024.000000 1024.000000"
 preserveAspectRatio="xMidYMid meet">
<metadata>
Created by potrace 1.14, written by Peter Selinger 2001-2017
</metadata>
<g transform="translate(0.000000,1024.000000) scale(0.100000,-0.100000)"
fill="#000000" stroke="none">
<path d="M0 5120 l0 -5120 5120 0 5120 0 0 5120 0 5120 -5120 0 -5120 0 0
-5120z m7314 3570 c33 -11 80 -33 105 -50 25 -16 308 -292 628 -612 609 -611
610 -612 647 -737 18 -62 21 -184 5 -251 -6 -25 -24 -74 -41 -110 -29 -59
-101 -135 -852 -887 -451 -453 -825 -823 -831 -823 -6 0 -49 38 -95 85 l-85
85 817 818 c574 574 822 828 833 854 23 57 19 144 -9 203 -19 40 -140 166
-587 612 -561 558 -564 562 -623 578 -66 19 -126 15 -179 -11 -17 -9 -80 -64
-139 -122 l-108 -107 234 -235 c198 -198 236 -241 241 -272 10 -56 -18 -106
-73 -130 -77 -35 -89 -27 -347 232 l-230 230 -177 -177 -178 -178 148 -148
147 -147 0 -55 c0 -48 -4 -59 -31 -86 -38 -38 -97 -49 -140 -26 -16 9 -90 77
-164 151 l-135 136 -177 -177 -178 -178 234 -235 c200 -200 235 -240 241 -272
15 -80 -63 -158 -143 -143 -32 6 -72 41 -272 241 l-235 234 -85 -85 c-47 -47
-89 -85 -95 -85 -6 0 -49 38 -95 85 l-85 85 825 823 c895 893 869 870 1013
903 79 18 193 11 271 -16z m-5124 -290 c96 -27 538 -159 982 -292 l807 -241
2174 -2176 c2041 -2043 2176 -2180 2210 -2247 93 -181 86 -379 -18 -560 -40
-70 -880 -909 -963 -962 -133 -85 -290 -112 -440 -74 -186 47 23 -150 -2386
2257 l-2174 2171 -172 575 c-94 316 -216 720 -270 899 -128 420 -144 487 -135
546 7 52 59 118 110 140 50 22 92 16 275 -36z m1170 -3455 l85 -85 -90 -90
-90 -90 234 -234 c224 -224 233 -235 238 -278 10 -87 -48 -145 -135 -135 -43
5 -54 14 -278 238 l-234 234 -177 -177 -178 -178 148 -148 147 -149 0 -50 c0
-62 -32 -107 -86 -122 -62 -17 -89 0 -241 151 l-143 143 -177 -178 -178 -177
226 -227 c125 -126 232 -238 238 -250 27 -53 3 -131 -49 -158 -16 -8 -48 -15
-72 -15 -42 0 -44 2 -280 238 l-239 237 -113 -115 c-123 -124 -136 -148 -136
-245 0 -102 3 -105 611 -712 561 -558 564 -562 623 -578 68 -20 127 -15 184
14 21 11 387 370 842 825 443 443 810 806 815 806 6 0 49 -38 95 -85 l85 -85
-825 -824 c-778 -777 -829 -825 -897 -859 -161 -79 -348 -70 -492 23 -25 16
-308 292 -628 612 -609 611 -610 612 -647 737 -18 62 -21 184 -5 251 6 25 24
74 41 110 29 59 101 135 852 888 451 452 825 822 831 822 6 0 48 -38 95 -85z"/>
<path d="M2388 7873 c-126 -126 -228 -235 -228 -242 0 -11 335 -1141 356
-1200 3 -10 39 19 111 92 l107 106 2169 -2166 2169 -2166 89 89 89 89 -2167
2167 -2168 2168 265 265 265 265 2167 -2167 2168 -2168 87 88 88 87 -2168
2168 -2167 2167 110 110 111 111 -598 179 c-329 98 -605 180 -613 182 -9 2
-104 -86 -242 -224z"/>
</g>
</svg>
