<?xml version="1.0" encoding="UTF-8"?><svg id="Thumnails" xmlns="http://www.w3.org/2000/svg" viewBox="0 0 32 32"><g id="icons_communication_D-I_ic_Ice_cream"><path d="m20.8,17.4h0s0,.07,0,.1v1.2c0,.5-.4.9-.9.9h0c-.35,0-.67-.21-.82-.53h0s0,0,0,0l-2.43,6.66c-.24.62-1.07.62-1.3,0l-2.76-7.58c-.08-.23-.28-.41-.52-.46-1.81-.42-3.14-1.98-3.25-3.83-.12-1.86,1-3.57,2.75-4.21.16-.06.27-.2.3-.37.34-1.98,2.06-3.49,4.14-3.49s3.78,1.49,4.13,3.45c.04.2.17.36.36.43,1.57.6,2.64,2.08,2.7,3.76s-.88,3.24-2.4,3.96h0Zm.38-5.86c-.3-.32-.66-.56-1.06-.73-.18-.07-.47-.12-.72-.16-.25-.04-.42-.25-.41-.5,0-.05,0-.1,0-.15,0-.2-.02-.4-.06-.6-.29-1.4-1.51-2.4-2.94-2.4s-2.66,1-2.94,2.4c-.04.2-.06.4-.06.6,0,.04,0,.09,0,.13,0,.26-.18.49-.44.53-.24.04-.52.09-.68.16-1.34.54-2.1,1.94-1.83,3.36s1.51,2.43,2.95,2.43h0v.35c0,.5.4.9.9.9h0c.5,0,.9-.4.9-.9v-.36c0-.53.35-1,.86-1.15s1.06.06,1.35.51c.08.07.16.14.24.21.34.34,1.09.44,1.75.44,1.2,0,2.28-.71,2.75-1.81.47-1.1.25-2.38-.57-3.25h0Z" fill="#fff" fill-rule="evenodd"/></g></svg>