<?xml version="1.0" encoding="UTF-8"?><svg id="Thumnails" xmlns="http://www.w3.org/2000/svg" viewBox="0 0 32 32"><g id="icons_communication_-D_ic_Coffee_maker"><path d="m23.79,11.2v-4.08c0-.73-.6-1.32-1.34-1.32h-12.9c-.74,0-1.34.59-1.34,1.32v4.08h1.2v12.6h-1.2v1.08c0,.73.6,1.32,1.34,1.32h12.9c.74,0,1.34-.59,1.34-1.32v-1.08h-1.18v-12.6h1.18Zm-14.38-3.3c0-.5.4-.9.9-.9.5,0,.9.4.9.9,0,.5-.4.9-.9.9-.5,0-.9-.4-.9-.9h0Zm12.6,15.9h-12v-12.6h5.2v.11c0,.43.36.78.79.78s.79-.35.79-.78v-.11h5.22v12.6Zm-10.2-6.6l1,5.25c.04.43.41.75.84.75h4.29c.43,0,.79-.32.84-.75l.09-.49c.22.08.45.12.68.12,1.07,0,1.94-.86,1.94-1.92s-.86-1.91-1.92-1.92l.2-1.06h-7.96Zm8.81,2.97c0,.59-.48,1.06-1.08,1.06-.18,0-.36-.05-.52-.13l.38-1.98s.1,0,.14,0c.59,0,1.08.48,1.08,1.06Zm-4.64-5.63c.43,0,.77-.35.76-.78,0-.43-.35-.77-.78-.77-.43,0-.77.35-.77.77,0,.43.35.78.78.77h0Z" fill="#fff" fill-rule="evenodd"/></g></svg>