<?xml version="1.0" encoding="UTF-8"?><svg id="Thumnails" xmlns="http://www.w3.org/2000/svg" viewBox="0 0 32 32"><g id="icons_communication_R-U_ic_Restaurant"><path d="m20.8,5.8h0c-1.66,0-3,1.34-3,3v9h1.2v7.2c0,.66.54,1.2,1.2,1.2h0c.66,0,1.2-.54,1.2-1.2V6.4c0-.33-.27-.6-.6-.6Zm-6,0c-.33,0-.6.27-.6.6v4.8h-.6v-4.8c0-.33-.27-.6-.6-.6s-.6.27-.6.6v4.8h-.6v-4.8c0-.33-.27-.6-.6-.6s-.6.27-.6.6v6c0,.76.48,1.44,1.2,1.7v10.9c0,.66.54,1.2,1.2,1.2h0c.66,0,1.2-.54,1.2-1.2v-10.9c.72-.25,1.2-.93,1.2-1.7v-6c0-.33-.27-.6-.6-.6Z" fill="#fff" fill-rule="evenodd"/></g></svg>