<svg width="24" height="24" viewBox="0 0 24 24" xmlns="http://www.w3.org/2000/svg">
    <path d="M21.3 9.6H2.7a.903.903 0 0 0-.9.9.903.903 0 0 0 .9.9h.765a.3.3 0 0 1 .299.276l.395 5.012.001.02c.005 1.709 1.3 3.092 2.895 3.092h9.89c1.596 0 2.89-1.383 2.895-3.092v-.02l.396-5.012a.3.3 0 0 1 .3-.276h.764a.903.903 0 0 0 .9-.9.903.903 0 0 0-.9-.9zm-.722-2.373a5.338 5.338 0 0 1-.573-.208c-2.19-.971-4.712-1.556-7.405-1.632v-.296c0-.16.13-.291.291-.291a.306.306 0 0 0 .305-.248.3.3 0 0 0-.296-.352h-1.791a.306.306 0 0 0-.305.248.3.3 0 0 0 .296.352.3.3 0 0 1 .3.3v.287c-2.693.076-5.215.66-7.405 1.632-.187.08-.378.15-.573.208A.6.6 0 0 0 3.6 8.4h16.8a.6.6 0 0 0 .178-1.173z" fill="#000" fill-rule="evenodd"/>
</svg>
