<?xml version="1.0" encoding="UTF-8"?><svg id="Thumnails" xmlns="http://www.w3.org/2000/svg" viewBox="0 0 32 32"><g id="icons_communication_-D_ic_Cooking_pot"><path d="m25.3,13.6H6.7c-.5,0-.9.4-.9.9h0c0,.5.4.9.9.9h.76c.16,0,.29.12.3.28l.4,5.01s0,.01,0,.02c0,1.71,1.3,3.09,2.9,3.09h9.89c1.6,0,2.89-1.38,2.9-3.09,0,0,0-.01,0-.02l.4-5.01c.01-.16.14-.28.3-.28h.76c.5,0,.9-.4.9-.9h0c0-.5-.4-.9-.9-.9Zm-.72-2.37c-.19-.06-.39-.13-.57-.21-2.19-.97-4.71-1.56-7.41-1.63v-.3c0-.16.13-.29.29-.29.15,0,.28-.1.3-.25.02-.09,0-.18-.07-.24-.06-.07-.14-.11-.23-.11h-1.79c-.15,0-.28.1-.3.25-.02.09,0,.18.07.24.06.07.14.11.23.11.17,0,.3.13.3.3v.29c-2.69.08-5.21.66-7.41,1.63-.19.08-.38.15-.57.21-.28.09-.46.37-.41.66.04.29.3.51.59.51h16.8c.3,0,.55-.22.59-.51s-.13-.57-.41-.66h0Z" fill="#fff" fill-rule="evenodd"/></g></svg>