<?xml version="1.0" encoding="UTF-8"?><svg id="a" xmlns="http://www.w3.org/2000/svg" xmlns:xlink="http://www.w3.org/1999/xlink" viewBox="0 0 1692 854"><defs><style>.y{fill:rgba(18,18,18,0);}.a`,.aa,.ab{fill:none;}.ac{fill:#ff7900;}.ad{fill:#333;}.ae{fill:#1b1b1b;}.af{fill:#2f2f2f;}.ag{clip-path:url(#c);}.aa{stroke:#ff7900;stroke-width:16px;}.aa,.ab{stroke-miterlimit:10;}.ab{stroke:#fff;stroke-width:14px;}.ab,.ah{opacity:.6;}.ah{fill:#fff;}</style><clipPath id="c"><rect id="d" class="a`" width="1692" height="854"/></clipPath></defs><rect id="b" class="ae" width="1692" height="854"/><g class="ag"><g><path class="ad" d="M1396.66,625.37c-.03,71.81-58.25,130.05-130.09,130.06l-841.12-.02c-71.84-.03-130.09-58.23-130.08-130.07l-.03-1812.38c.02-71.81,58.26-130.09,130.09-130.05l841.14-.02c71.84,0,130.06,58.23,130.05,130.1l.04,1812.39Z"/><polygon class="ae" points="1344.61 522.52 347.36 522.51 347.38 -934.32 1344.62 -934.31 1344.61 522.52"/><g id="e"><rect id="f" x="1012.45" y="301" width="332.55" height="251.52"/><rect id="g" class="y" x="1012.45" y="301" width="332.55" height="251.52"/><rect id="h" class="af" x="1012.45" y="301" width="332.55" height="251.52"/></g><g id="i"><rect id="j" x="679.91" y="301" width="332.55" height="251.52"/><rect id="k" class="y" x="679.91" y="301" width="332.55" height="251.52"/><rect id="l" class="af" x="679.91" y="301" width="332.55" height="251.52"/></g><g id="m"><rect id="n" x="347.36" y="301" width="332.55" height="251.52"/><rect id="o" class="y" x="347.36" y="301" width="332.55" height="251.52"/><rect id="p" class="af" x="347.36" y="301" width="332.55" height="251.52"/></g><g><g id="q" transform="translate(48 8)"><rect id="r" class="a`" x="442.4" y="335.25" width="138.05" height="138.05"/><path id="s" class="ac" d="M511.43,456.04l-8.34-7.45c-29.62-26.35-49.18-43.75-49.18-65.03,0-17.16,13.9-31.06,31.06-31.07,.19,0,.39,0,.58,0,9.92,.05,19.34,4.35,25.88,11.79,6.55-7.45,15.97-11.74,25.88-11.79,17.15-.32,31.31,13.33,31.63,30.48,0,.19,0,.39,0,.58,0,21.33-19.56,38.71-49.18,65.12l-8.34,7.36Z"/></g><line class="aa" x1="409.74" y1="510.28" x2="617.53" y2="510.28"/></g><g><g id="t" transform="translate(48 8)"><rect id="u" class="a`" x="1109.7" y="335.25" width="138.05" height="138.05"/><path id="v" class="ah" d="M1178.73,461.79c-31.77,0-57.52-25.75-57.52-57.52s25.75-57.52,57.52-57.52,57.52,25.75,57.52,57.52c-.03,31.75-25.77,57.49-57.52,57.52Zm-5.75-40.27v11.5h11.5v-11.5h-11.5Zm0-46.02v34.51h11.5v-34.51h-11.5Z"/></g><line class="ab" x1="1074.83" y1="510.28" x2="1282.62" y2="510.28"/></g><g><line class="ab" x1="742.29" y1="510.28" x2="950.08" y2="510.28"/><g><rect id="w" class="a`" x="777.16" y="335.25" width="138.05" height="138.05"/><path id="x" class="ah" d="M846.18,458.92c-6.35,0-11.5-5.15-11.5-11.5h23.01c0,6.35-5.15,11.5-11.5,11.5Zm46.02-17.26h-92.04v-5.75l11.5-11.5v-28.76c-.17-8.29,2.18-16.44,6.75-23.35,4.52-6.58,11.35-11.23,19.13-13v-3.91c0-4.77,3.86-8.63,8.63-8.63s8.63,3.86,8.63,8.63v3.91c7.78,1.79,14.6,6.44,19.11,13.02,4.58,6.91,6.94,15.05,6.78,23.33v28.76l11.5,11.5v5.75Z"/></g></g></g></g></svg>