<?xml version="1.0" encoding="UTF-8"?><svg id="Android_Thumbnails" xmlns="http://www.w3.org/2000/svg" xmlns:xlink="http://www.w3.org/1999/xlink" viewBox="0 0 400 200"><defs><clipPath id="clippath"><path d="m348,80h0c11.05,0,20,8.95,20,20h0c0,11.05-8.95,20-20,20h0c-11.05,0-20-8.95-20-20h0c0-11.05,8.95-20,20-20Z" fill="none"/></clipPath></defs><rect id="Overlay" width="400" height="200" fill="#1b1b1b"/><rect x="24" y="72" width="352" height="56" rx="4" ry="4" fill="#fff"/><g clip-path="url(#clippath)"><path d="m355,94.41l-1.41-1.41-5.59,5.59-5.59-5.59-1.41,1.41,5.59,5.59-5.59,5.59,1.41,1.41,5.59-5.59,5.59,5.59,1.41-1.41-5.59-5.59,5.59-5.59Z"/></g><rect x="40" y="96" width="208" height="8"/><rect x="272" y="96" width="48" height="8" fill="#ff7900"/></svg>